<svg xmlns="http://www.w3.org/2000/svg" viewBox="0 0 512 512" width="512" height="512">
  <rect width="512" height="512" fill="#04060C"/>
  <defs>
    <linearGradient id="b" x1="0" y1="0" x2="0" y2="1">
      <stop offset="0" stop-color="#66EFFF"/>
      <stop offset="0.52" stop-color="#00E5FF"/>
      <stop offset="1" stop-color="#007E8C"/>
    </linearGradient>
    <radialGradient id="g" cx="0.5" cy="0.5" r="0.5">
      <stop offset="0" stop-color="#00E5FF" stop-opacity="0.45"/>
      <stop offset="1" stop-color="#00E5FF" stop-opacity="0"/>
    </radialGradient>
  </defs>
  <g transform="translate(106,86) scale(1.5)">
    <ellipse cx="100" cy="120" rx="96" ry="98" fill="url(#g)"/>
    <line x1="100" y1="40" x2="100" y2="20" stroke="#007E8C" stroke-width="7" stroke-linecap="round"/>
    <circle cx="100" cy="16" r="11" fill="#00E5FF"/>
    <path d="M40 96 Q40 40 100 40 Q160 40 160 96 L160 130 Q160 168 132 186 L100 204 L68 186 Q40 168 40 130 Z" fill="url(#b)" stroke="#005761" stroke-width="4"/>
    <ellipse cx="74" cy="78" rx="16" ry="11" fill="#fff" opacity="0.14"/>
    <ellipse cx="82" cy="98" rx="14" ry="16" fill="#04060C"/>
    <ellipse cx="122" cy="98" rx="14" ry="16" fill="#04060C"/>
    <circle cx="86" cy="92" r="4.5" fill="#fff"/>
    <circle cx="126" cy="92" r="4.5" fill="#fff"/>
    <path d="M84 150 L100 163 L116 150" fill="none" stroke="#fff" stroke-opacity="0.85" stroke-width="7" stroke-linecap="round" stroke-linejoin="round"/>
  </g>
</svg>
